<mxfile host="www.draw.io" modified="2019-11-06T18:42:27.261Z" agent="Mozilla/5.0 (X11; Ubuntu; Linux x86_64; rv:70.0) Gecko/20100101 Firefox/70.0" etag="o0VaFHo_g99KoSx3YL4m" version="12.2.0" type="github" pages="1">
  <diagram id="ghhylSFfgHjQgVcrPekR" name="Page-1">
    <mxGraphModel dx="1092" dy="649" grid="1" gridSize="10" guides="1" tooltips="1" connect="1" arrows="1" fold="1" page="1" pageScale="1" pageWidth="1654" pageHeight="1169" math="0" shadow="0">
      <root>
        <mxCell id="0"/>
        <mxCell id="1" parent="0"/>
        <mxCell id="JzE6JeNeijgl-ERopNni-44" value="&lt;font style=&quot;font-size: 14px&quot;&gt;ANÁLISE DE VIABILIDADE TÉCNICA&lt;/font&gt;" style="swimlane;html=1;childLayout=stackLayout;resizeParent=1;resizeParentMax=0;startSize=20;fontFamily=Arial;fontStyle=3;verticalAlign=bottom;" vertex="1" parent="1">
          <mxGeometry x="70" y="60" width="1380" height="740" as="geometry"/>
        </mxCell>
        <mxCell id="JzE6JeNeijgl-ERopNni-45" value="A - SOLICITAÇÃO" style="swimlane;html=1;startSize=20;fontFamily=Arial;fontStyle=2" vertex="1" parent="JzE6JeNeijgl-ERopNni-44">
          <mxGeometry y="20" width="340" height="720" as="geometry"/>
        </mxCell>
        <mxCell id="JzE6JeNeijgl-ERopNni-93" value="" style="whiteSpace=wrap;html=1;fontFamily=Arial;fontSize=11;fillColor=#fff2cc;strokeColor=#d6b656;dashed=1;strokeWidth=1;rounded=1;arcSize=3;" vertex="1" parent="JzE6JeNeijgl-ERopNni-45">
          <mxGeometry x="10" y="110" width="320" height="600" as="geometry"/>
        </mxCell>
        <mxCell id="JzE6JeNeijgl-ERopNni-52" value="" style="edgeStyle=orthogonalEdgeStyle;rounded=0;orthogonalLoop=1;jettySize=auto;html=1;fontFamily=Arial;exitX=0.5;exitY=1;exitDx=0;exitDy=0;exitPerimeter=0;entryX=0.5;entryY=0;entryDx=0;entryDy=0;entryPerimeter=0;" edge="1" parent="JzE6JeNeijgl-ERopNni-45" source="JzE6JeNeijgl-ERopNni-50" target="JzE6JeNeijgl-ERopNni-67">
          <mxGeometry relative="1" as="geometry">
            <mxPoint x="170" y="288" as="targetPoint"/>
            <Array as="points">
              <mxPoint x="135" y="278"/>
              <mxPoint x="215" y="278"/>
            </Array>
          </mxGeometry>
        </mxCell>
        <mxCell id="JzE6JeNeijgl-ERopNni-59" style="edgeStyle=orthogonalEdgeStyle;rounded=0;orthogonalLoop=1;jettySize=auto;html=1;entryX=0;entryY=0.5;entryDx=0;entryDy=0;entryPerimeter=0;fontFamily=Arial;" edge="1" parent="JzE6JeNeijgl-ERopNni-45" source="JzE6JeNeijgl-ERopNni-50" target="JzE6JeNeijgl-ERopNni-58">
          <mxGeometry relative="1" as="geometry"/>
        </mxCell>
        <mxCell id="JzE6JeNeijgl-ERopNni-50" value="1. Checklist" style="strokeWidth=2;html=1;shape=mxgraph.flowchart.start_1;whiteSpace=wrap;fontFamily=Arial;fontStyle=1" vertex="1" parent="JzE6JeNeijgl-ERopNni-45">
          <mxGeometry x="85" y="198" width="100" height="60" as="geometry"/>
        </mxCell>
        <mxCell id="JzE6JeNeijgl-ERopNni-56" value="" style="edgeStyle=orthogonalEdgeStyle;rounded=0;orthogonalLoop=1;jettySize=auto;html=1;fontFamily=Arial;entryX=0;entryY=0.5;entryDx=0;entryDy=0;entryPerimeter=0;" edge="1" parent="JzE6JeNeijgl-ERopNni-45" source="JzE6JeNeijgl-ERopNni-53" target="JzE6JeNeijgl-ERopNni-57">
          <mxGeometry relative="1" as="geometry">
            <mxPoint x="245" y="566" as="targetPoint"/>
          </mxGeometry>
        </mxCell>
        <mxCell id="JzE6JeNeijgl-ERopNni-53" value="2. Abertura" style="rounded=1;whiteSpace=wrap;html=1;absoluteArcSize=1;arcSize=14;strokeWidth=2;fontFamily=Arial;fontStyle=1" vertex="1" parent="JzE6JeNeijgl-ERopNni-45">
          <mxGeometry x="45" y="528" width="90" height="60" as="geometry"/>
        </mxCell>
        <mxCell id="JzE6JeNeijgl-ERopNni-57" value="&lt;div&gt;Protocolo SPD&lt;/div&gt;&lt;div&gt;(Protocolo principal)&lt;br&gt;&lt;/div&gt;" style="strokeWidth=2;html=1;shape=mxgraph.flowchart.document2;whiteSpace=wrap;size=0.25;fontFamily=Arial;verticalAlign=top;" vertex="1" parent="JzE6JeNeijgl-ERopNni-45">
          <mxGeometry x="185" y="468" width="130" height="60" as="geometry"/>
        </mxCell>
        <mxCell id="JzE6JeNeijgl-ERopNni-58" value="&lt;div align=&quot;left&quot;&gt;Documentação&lt;/div&gt;" style="strokeWidth=2;html=1;shape=mxgraph.flowchart.multi-document;whiteSpace=wrap;fontFamily=Arial;align=left;verticalAlign=middle;" vertex="1" parent="JzE6JeNeijgl-ERopNni-45">
          <mxGeometry x="205" y="198" width="110" height="60" as="geometry"/>
        </mxCell>
        <mxCell id="JzE6JeNeijgl-ERopNni-68" style="edgeStyle=orthogonalEdgeStyle;rounded=0;orthogonalLoop=1;jettySize=auto;html=1;entryX=0.5;entryY=0;entryDx=0;entryDy=0;fontFamily=Arial;" edge="1" parent="JzE6JeNeijgl-ERopNni-45" source="JzE6JeNeijgl-ERopNni-69" target="JzE6JeNeijgl-ERopNni-53">
          <mxGeometry relative="1" as="geometry"/>
        </mxCell>
        <mxCell id="JzE6JeNeijgl-ERopNni-91" style="edgeStyle=orthogonalEdgeStyle;rounded=0;orthogonalLoop=1;jettySize=auto;html=1;fontFamily=Arial;fontSize=11;" edge="1" parent="JzE6JeNeijgl-ERopNni-45" source="JzE6JeNeijgl-ERopNni-90" target="JzE6JeNeijgl-ERopNni-81">
          <mxGeometry relative="1" as="geometry">
            <Array as="points">
              <mxPoint x="60" y="268"/>
              <mxPoint x="60" y="268"/>
            </Array>
          </mxGeometry>
        </mxCell>
        <mxCell id="JzE6JeNeijgl-ERopNni-67" value="Documentação completa?" style="strokeWidth=2;html=1;shape=mxgraph.flowchart.decision;whiteSpace=wrap;fontFamily=Arial;" vertex="1" parent="JzE6JeNeijgl-ERopNni-45">
          <mxGeometry x="150" y="328" width="130" height="100" as="geometry"/>
        </mxCell>
        <mxCell id="JzE6JeNeijgl-ERopNni-69" value="Sim" style="text;html=1;resizable=0;autosize=1;align=center;verticalAlign=middle;points=[];fillColor=none;strokeColor=none;rounded=0;fontFamily=Arial;fontSize=11;fontStyle=2" vertex="1" parent="JzE6JeNeijgl-ERopNni-45">
          <mxGeometry x="70" y="478" width="40" height="20" as="geometry"/>
        </mxCell>
        <mxCell id="JzE6JeNeijgl-ERopNni-71" style="edgeStyle=orthogonalEdgeStyle;rounded=0;orthogonalLoop=1;jettySize=auto;html=1;entryX=0.5;entryY=0;entryDx=0;entryDy=0;fontFamily=Arial;exitX=0.5;exitY=1;exitDx=0;exitDy=0;exitPerimeter=0;" edge="1" parent="JzE6JeNeijgl-ERopNni-45" source="JzE6JeNeijgl-ERopNni-67" target="JzE6JeNeijgl-ERopNni-69">
          <mxGeometry relative="1" as="geometry">
            <mxPoint x="85" y="468" as="sourcePoint"/>
            <mxPoint x="85" y="578" as="targetPoint"/>
            <Array as="points">
              <mxPoint x="215" y="448"/>
              <mxPoint x="90" y="448"/>
            </Array>
          </mxGeometry>
        </mxCell>
        <mxCell id="JzE6JeNeijgl-ERopNni-79" style="edgeStyle=orthogonalEdgeStyle;rounded=0;orthogonalLoop=1;jettySize=auto;html=1;fontFamily=Arial;entryX=0.5;entryY=0;entryDx=0;entryDy=0;entryPerimeter=0;exitX=1;exitY=0.75;exitDx=0;exitDy=0;" edge="1" parent="JzE6JeNeijgl-ERopNni-45" source="JzE6JeNeijgl-ERopNni-94" target="JzE6JeNeijgl-ERopNni-50">
          <mxGeometry relative="1" as="geometry">
            <mxPoint x="90" y="64" as="sourcePoint"/>
            <mxPoint x="110" y="138" as="targetPoint"/>
            <Array as="points">
              <mxPoint x="135" y="78"/>
            </Array>
          </mxGeometry>
        </mxCell>
        <mxCell id="JzE6JeNeijgl-ERopNni-80" style="edgeStyle=orthogonalEdgeStyle;rounded=0;orthogonalLoop=1;jettySize=auto;html=1;fontFamily=Arial;" edge="1" parent="JzE6JeNeijgl-ERopNni-45" source="JzE6JeNeijgl-ERopNni-81">
          <mxGeometry relative="1" as="geometry">
            <mxPoint x="60" y="98" as="targetPoint"/>
          </mxGeometry>
        </mxCell>
        <mxCell id="JzE6JeNeijgl-ERopNni-81" value="&lt;div style=&quot;font-size: 11px;&quot;&gt;&lt;i style=&quot;font-size: 11px;&quot;&gt;Esclarece o&lt;/i&gt;&lt;/div&gt;&lt;div style=&quot;font-size: 11px;&quot;&gt;&lt;i style=&quot;font-size: 11px;&quot;&gt;cliente e encerra&lt;/i&gt;&lt;/div&gt;&lt;div style=&quot;font-size: 11px;&quot;&gt;&lt;i style=&quot;font-size: 11px;&quot;&gt;o atendimento&lt;br style=&quot;font-size: 11px;&quot;&gt;&lt;/i&gt; &lt;/div&gt;" style="text;html=1;resizable=0;autosize=1;align=center;verticalAlign=middle;points=[];fillColor=none;strokeColor=none;rounded=0;fontFamily=Arial;fontSize=11;direction=south;" vertex="1" parent="JzE6JeNeijgl-ERopNni-45">
          <mxGeometry x="35" y="138" width="50" height="55" as="geometry"/>
        </mxCell>
        <mxCell id="JzE6JeNeijgl-ERopNni-90" value="Não" style="text;html=1;resizable=0;autosize=1;align=center;verticalAlign=middle;points=[];fillColor=none;strokeColor=none;rounded=0;fontFamily=Arial;fontSize=11;fontStyle=2" vertex="1" parent="JzE6JeNeijgl-ERopNni-45">
          <mxGeometry x="38" y="298" width="40" height="20" as="geometry"/>
        </mxCell>
        <mxCell id="JzE6JeNeijgl-ERopNni-92" style="edgeStyle=orthogonalEdgeStyle;rounded=0;orthogonalLoop=1;jettySize=auto;html=1;entryX=0.503;entryY=1.067;entryDx=0;entryDy=0;entryPerimeter=0;fontFamily=Arial;fontSize=11;" edge="1" parent="JzE6JeNeijgl-ERopNni-45" source="JzE6JeNeijgl-ERopNni-67" target="JzE6JeNeijgl-ERopNni-90">
          <mxGeometry relative="1" as="geometry">
            <mxPoint x="170" y="420" as="sourcePoint"/>
            <mxPoint x="80.33333333333337" y="213.33333333333337" as="targetPoint"/>
            <Array as="points">
              <mxPoint x="58" y="378"/>
            </Array>
          </mxGeometry>
        </mxCell>
        <mxCell id="JzE6JeNeijgl-ERopNni-94" value="&lt;span style=&quot;&quot;&gt;Cliente&lt;/span&gt;" style="shape=actor;whiteSpace=wrap;html=1;rounded=1;strokeColor=#000000;strokeWidth=2;fillColor=#B3B3B3;fontFamily=Arial;fontSize=11;verticalAlign=bottom;labelBackgroundColor=none;" vertex="1" parent="JzE6JeNeijgl-ERopNni-45">
          <mxGeometry x="35" y="33" width="50" height="60" as="geometry"/>
        </mxCell>
        <mxCell id="JzE6JeNeijgl-ERopNni-139" style="edgeStyle=orthogonalEdgeStyle;rounded=0;orthogonalLoop=1;jettySize=auto;html=1;entryX=0;entryY=0.75;entryDx=0;entryDy=0;entryPerimeter=0;fontFamily=Arial;fontSize=11;exitX=0;exitY=0.5;exitDx=0;exitDy=0;exitPerimeter=0;" edge="1" parent="JzE6JeNeijgl-ERopNni-45" source="JzE6JeNeijgl-ERopNni-138" target="JzE6JeNeijgl-ERopNni-57">
          <mxGeometry relative="1" as="geometry">
            <Array as="points">
              <mxPoint x="165" y="608"/>
              <mxPoint x="165" y="513"/>
            </Array>
          </mxGeometry>
        </mxCell>
        <mxCell id="JzE6JeNeijgl-ERopNni-138" value="&lt;div&gt;&lt;i&gt;Anexar arquivo&lt;/i&gt;&lt;/div&gt;&lt;div align=&quot;left&quot;&gt;&lt;i&gt;digital do Partido&lt;/i&gt;&lt;/div&gt;&lt;div align=&quot;left&quot;&gt;&lt;i&gt;Urbanístico no SPD&lt;/i&gt;&lt;br&gt;&lt;/div&gt;" style="strokeWidth=2;html=1;shape=mxgraph.flowchart.annotation_2;align=left;labelPosition=right;pointerEvents=1;rounded=1;fillColor=#ffffff;fontFamily=Arial;fontSize=11;" vertex="1" parent="JzE6JeNeijgl-ERopNni-45">
          <mxGeometry x="185" y="580" width="25" height="56" as="geometry"/>
        </mxCell>
        <mxCell id="JzE6JeNeijgl-ERopNni-184" value="5.0.06.00/GCLE" style="text;html=1;resizable=0;autosize=1;align=center;verticalAlign=middle;points=[];fillColor=none;strokeColor=none;rounded=0;fontFamily=Arial;fontSize=22;fontColor=#994C00;fontStyle=1" vertex="1" parent="JzE6JeNeijgl-ERopNni-45">
          <mxGeometry x="150" y="123" width="170" height="30" as="geometry"/>
        </mxCell>
        <mxCell id="JzE6JeNeijgl-ERopNni-46" value="B - VERIFICAÇÃO DE DÉBITOS" style="swimlane;html=1;startSize=20;fontFamily=Arial;" vertex="1" parent="JzE6JeNeijgl-ERopNni-44">
          <mxGeometry x="340" y="20" width="340" height="720" as="geometry"/>
        </mxCell>
        <mxCell id="JzE6JeNeijgl-ERopNni-122" value="" style="whiteSpace=wrap;html=1;fontFamily=Arial;fontSize=11;fillColor=#d5e8d4;strokeColor=#82b366;dashed=1;strokeWidth=1;rounded=1;arcSize=3;" vertex="1" parent="JzE6JeNeijgl-ERopNni-46">
          <mxGeometry x="10" y="30" width="320" height="680" as="geometry"/>
        </mxCell>
        <mxCell id="JzE6JeNeijgl-ERopNni-65" value="" style="edgeStyle=orthogonalEdgeStyle;rounded=0;orthogonalLoop=1;jettySize=auto;html=1;fontFamily=Arial;entryX=0.5;entryY=0;entryDx=0;entryDy=0;entryPerimeter=0;" edge="1" parent="JzE6JeNeijgl-ERopNni-46" source="JzE6JeNeijgl-ERopNni-60" target="JzE6JeNeijgl-ERopNni-66">
          <mxGeometry relative="1" as="geometry">
            <mxPoint x="90" y="178" as="targetPoint"/>
          </mxGeometry>
        </mxCell>
        <mxCell id="JzE6JeNeijgl-ERopNni-60" value="&lt;font style=&quot;font-size: 12px&quot; face=&quot;Arial&quot;&gt;1. &lt;span style=&quot;background-color: transparent ; font-weight: 700 ; font-variant: normal ; text-decoration: none ; vertical-align: baseline ; white-space: pre-wrap&quot; id=&quot;docs-internal-guid-7abce273-7fff-0287-8ae0-c73eb1ac15d4&quot;&gt;Consulta situação de débitos (GSAN)&lt;/span&gt;&lt;/font&gt;" style="rounded=1;whiteSpace=wrap;html=1;absoluteArcSize=1;arcSize=14;strokeWidth=2;fontFamily=Arial;fontStyle=1" vertex="1" parent="JzE6JeNeijgl-ERopNni-46">
          <mxGeometry x="20" y="118" width="130" height="60" as="geometry"/>
        </mxCell>
        <mxCell id="JzE6JeNeijgl-ERopNni-103" style="edgeStyle=orthogonalEdgeStyle;rounded=0;orthogonalLoop=1;jettySize=auto;html=1;fontFamily=Arial;fontSize=11;" edge="1" parent="JzE6JeNeijgl-ERopNni-46" source="JzE6JeNeijgl-ERopNni-66" target="JzE6JeNeijgl-ERopNni-100">
          <mxGeometry relative="1" as="geometry"/>
        </mxCell>
        <mxCell id="JzE6JeNeijgl-ERopNni-105" value="" style="edgeStyle=orthogonalEdgeStyle;rounded=0;orthogonalLoop=1;jettySize=auto;html=1;fontFamily=Arial;fontSize=11;entryX=0.5;entryY=0;entryDx=0;entryDy=0;" edge="1" parent="JzE6JeNeijgl-ERopNni-46" source="JzE6JeNeijgl-ERopNni-106" target="JzE6JeNeijgl-ERopNni-111">
          <mxGeometry relative="1" as="geometry">
            <mxPoint x="130" y="400" as="targetPoint"/>
          </mxGeometry>
        </mxCell>
        <mxCell id="JzE6JeNeijgl-ERopNni-66" value="Há débitos?" style="strokeWidth=2;html=1;shape=mxgraph.flowchart.decision;whiteSpace=wrap;fontFamily=Arial;" vertex="1" parent="JzE6JeNeijgl-ERopNni-46">
          <mxGeometry x="80" y="238" width="100" height="82" as="geometry"/>
        </mxCell>
        <mxCell id="JzE6JeNeijgl-ERopNni-99" style="edgeStyle=orthogonalEdgeStyle;rounded=0;orthogonalLoop=1;jettySize=auto;html=1;fontFamily=Arial;fontSize=11;entryX=1;entryY=0.5;entryDx=0;entryDy=0;exitX=1;exitY=0.5;exitDx=0;exitDy=0;exitPerimeter=0;" edge="1" parent="JzE6JeNeijgl-ERopNni-46" source="JzE6JeNeijgl-ERopNni-100" target="JzE6JeNeijgl-ERopNni-108">
          <mxGeometry relative="1" as="geometry">
            <mxPoint x="200" y="301" as="sourcePoint"/>
            <mxPoint x="171.16666666666674" y="49.66666666666674" as="targetPoint"/>
            <Array as="points">
              <mxPoint x="320" y="279"/>
              <mxPoint x="320" y="81"/>
            </Array>
          </mxGeometry>
        </mxCell>
        <mxCell id="JzE6JeNeijgl-ERopNni-100" value="Sim" style="text;html=1;resizable=0;autosize=1;align=center;verticalAlign=middle;points=[];fillColor=none;strokeColor=none;rounded=0;fontFamily=Arial;fontSize=11;" vertex="1" parent="JzE6JeNeijgl-ERopNni-46">
          <mxGeometry x="255" y="269" width="30" height="20" as="geometry"/>
        </mxCell>
        <mxCell id="JzE6JeNeijgl-ERopNni-106" value="Não" style="text;html=1;resizable=0;autosize=1;align=center;verticalAlign=middle;points=[];fillColor=none;strokeColor=none;rounded=0;fontFamily=Arial;fontSize=11;" vertex="1" parent="JzE6JeNeijgl-ERopNni-46">
          <mxGeometry x="110" y="345" width="40" height="20" as="geometry"/>
        </mxCell>
        <mxCell id="JzE6JeNeijgl-ERopNni-107" value="" style="edgeStyle=orthogonalEdgeStyle;rounded=0;orthogonalLoop=1;jettySize=auto;html=1;fontFamily=Arial;fontSize=11;" edge="1" parent="JzE6JeNeijgl-ERopNni-46" source="JzE6JeNeijgl-ERopNni-66" target="JzE6JeNeijgl-ERopNni-106">
          <mxGeometry relative="1" as="geometry">
            <mxPoint x="490" y="362" as="sourcePoint"/>
            <mxPoint x="490" y="441.9999999999999" as="targetPoint"/>
          </mxGeometry>
        </mxCell>
        <mxCell id="JzE6JeNeijgl-ERopNni-108" value="Contacta o cliente para regualrização do débito" style="rounded=1;whiteSpace=wrap;html=1;absoluteArcSize=1;arcSize=14;strokeWidth=2;fillColor=#ffffff;fontFamily=Arial;fontSize=11;" vertex="1" parent="JzE6JeNeijgl-ERopNni-46">
          <mxGeometry x="50" y="60" width="160" height="42" as="geometry"/>
        </mxCell>
        <mxCell id="JzE6JeNeijgl-ERopNni-119" value="" style="edgeStyle=orthogonalEdgeStyle;rounded=0;orthogonalLoop=1;jettySize=auto;html=1;fontFamily=Arial;fontSize=11;" edge="1" parent="JzE6JeNeijgl-ERopNni-46" source="JzE6JeNeijgl-ERopNni-111" target="JzE6JeNeijgl-ERopNni-120">
          <mxGeometry relative="1" as="geometry">
            <mxPoint x="195" y="458.0000000000001" as="targetPoint"/>
          </mxGeometry>
        </mxCell>
        <mxCell id="JzE6JeNeijgl-ERopNni-111" value="2. Emissão da Certidão Negativa" style="rounded=1;whiteSpace=wrap;html=1;absoluteArcSize=1;arcSize=14;strokeWidth=2;fillColor=#ffffff;fontFamily=Arial;fontSize=11;verticalAlign=top;" vertex="1" parent="JzE6JeNeijgl-ERopNni-46">
          <mxGeometry x="40" y="432" width="110" height="52" as="geometry"/>
        </mxCell>
        <mxCell id="JzE6JeNeijgl-ERopNni-117" value="Extrato de débitos (GSAN)" style="strokeWidth=2;html=1;shape=mxgraph.flowchart.document2;whiteSpace=wrap;size=0.25;rounded=1;fillColor=#ffffff;fontFamily=Arial;fontSize=11;verticalAlign=top;" vertex="1" parent="JzE6JeNeijgl-ERopNni-46">
          <mxGeometry x="200" y="118" width="100" height="60" as="geometry"/>
        </mxCell>
        <mxCell id="JzE6JeNeijgl-ERopNni-116" value="" style="edgeStyle=orthogonalEdgeStyle;rounded=0;orthogonalLoop=1;jettySize=auto;html=1;fontFamily=Arial;fontSize=11;entryX=0;entryY=0.5;entryDx=0;entryDy=0;entryPerimeter=0;" edge="1" parent="JzE6JeNeijgl-ERopNni-46" source="JzE6JeNeijgl-ERopNni-60" target="JzE6JeNeijgl-ERopNni-117">
          <mxGeometry relative="1" as="geometry">
            <mxPoint x="205" y="148" as="targetPoint"/>
          </mxGeometry>
        </mxCell>
        <mxCell id="JzE6JeNeijgl-ERopNni-120" value="Certidão Negativa de Débitos" style="strokeWidth=2;html=1;shape=mxgraph.flowchart.document2;whiteSpace=wrap;size=0.25;rounded=1;fillColor=#ffffff;fontFamily=Arial;fontSize=11;verticalAlign=top;" vertex="1" parent="JzE6JeNeijgl-ERopNni-46">
          <mxGeometry x="210" y="428" width="100" height="60" as="geometry"/>
        </mxCell>
        <mxCell id="JzE6JeNeijgl-ERopNni-160" style="edgeStyle=orthogonalEdgeStyle;rounded=0;orthogonalLoop=1;jettySize=auto;html=1;entryX=0;entryY=0.5;entryDx=0;entryDy=0;entryPerimeter=0;fontFamily=Arial;fontSize=11;" edge="1" parent="JzE6JeNeijgl-ERopNni-46" source="JzE6JeNeijgl-ERopNni-127" target="JzE6JeNeijgl-ERopNni-158">
          <mxGeometry relative="1" as="geometry"/>
        </mxCell>
        <mxCell id="JzE6JeNeijgl-ERopNni-164" style="edgeStyle=orthogonalEdgeStyle;rounded=0;orthogonalLoop=1;jettySize=auto;html=1;fontFamily=Arial;fontSize=11;" edge="1" parent="JzE6JeNeijgl-ERopNni-46" source="JzE6JeNeijgl-ERopNni-127" target="JzE6JeNeijgl-ERopNni-130">
          <mxGeometry relative="1" as="geometry">
            <Array as="points">
              <mxPoint x="95" y="664"/>
            </Array>
          </mxGeometry>
        </mxCell>
        <mxCell id="JzE6JeNeijgl-ERopNni-127" value="3. Encaminhamento para Análise Técnica" style="rounded=1;whiteSpace=wrap;html=1;absoluteArcSize=1;arcSize=14;strokeWidth=2;fillColor=#ffffff;fontFamily=Arial;fontSize=11;" vertex="1" parent="JzE6JeNeijgl-ERopNni-46">
          <mxGeometry x="40" y="568" width="110" height="62" as="geometry"/>
        </mxCell>
        <mxCell id="JzE6JeNeijgl-ERopNni-123" style="edgeStyle=orthogonalEdgeStyle;rounded=0;orthogonalLoop=1;jettySize=auto;html=1;fontFamily=Arial;fontSize=11;" edge="1" parent="JzE6JeNeijgl-ERopNni-46" source="JzE6JeNeijgl-ERopNni-111" target="JzE6JeNeijgl-ERopNni-127">
          <mxGeometry relative="1" as="geometry">
            <mxPoint x="440" y="368" as="targetPoint"/>
            <Array as="points">
              <mxPoint x="95" y="538"/>
              <mxPoint x="95" y="538"/>
            </Array>
          </mxGeometry>
        </mxCell>
        <mxCell id="JzE6JeNeijgl-ERopNni-158" value="&lt;div&gt;Protocolo SPD Análise Técnica&lt;/div&gt;&lt;div&gt;(2° vinculado)&lt;br&gt;&lt;/div&gt;" style="strokeWidth=2;html=1;shape=mxgraph.flowchart.document2;whiteSpace=wrap;size=0.25;rounded=1;fillColor=#ffffff;fontFamily=Arial;fontSize=11;verticalAlign=top;" vertex="1" parent="JzE6JeNeijgl-ERopNni-46">
          <mxGeometry x="210" y="564" width="100" height="70" as="geometry"/>
        </mxCell>
        <mxCell id="JzE6JeNeijgl-ERopNni-130" value="&lt;div&gt;Encaminha para&lt;/div&gt;&lt;div&gt;4.0.00.00/DOM&lt;/div&gt;" style="text;html=1;resizable=0;autosize=1;align=center;verticalAlign=middle;points=[];fillColor=none;strokeColor=none;rounded=0;fontFamily=Arial;fontSize=11;fontStyle=2" vertex="1" parent="JzE6JeNeijgl-ERopNni-46">
          <mxGeometry x="180" y="644" width="90" height="30" as="geometry"/>
        </mxCell>
        <mxCell id="JzE6JeNeijgl-ERopNni-185" value="5.0.06.00/GCLE" style="text;html=1;resizable=0;autosize=1;align=center;verticalAlign=middle;points=[];fillColor=none;strokeColor=none;rounded=0;fontFamily=Arial;fontSize=22;fontColor=#336600;fontStyle=1" vertex="1" parent="JzE6JeNeijgl-ERopNni-46">
          <mxGeometry x="150" y="370" width="170" height="30" as="geometry"/>
        </mxCell>
        <mxCell id="JzE6JeNeijgl-ERopNni-48" value="C - ANÁLISE TÉCNICA" style="swimlane;html=1;startSize=20;fontFamily=Arial;" vertex="1" parent="JzE6JeNeijgl-ERopNni-44">
          <mxGeometry x="680" y="20" width="350" height="720" as="geometry"/>
        </mxCell>
        <mxCell id="JzE6JeNeijgl-ERopNni-183" value="" style="whiteSpace=wrap;html=1;fontFamily=Arial;fontSize=11;fillColor=#e1d5e7;strokeColor=#9673a6;dashed=1;strokeWidth=1;rounded=1;arcSize=3;" vertex="1" parent="JzE6JeNeijgl-ERopNni-48">
          <mxGeometry x="10" y="30" width="330" height="680" as="geometry"/>
        </mxCell>
        <mxCell id="JzE6JeNeijgl-ERopNni-147" style="edgeStyle=orthogonalEdgeStyle;rounded=0;orthogonalLoop=1;jettySize=auto;html=1;fontFamily=Arial;fontSize=11;" edge="1" parent="JzE6JeNeijgl-ERopNni-48" source="JzE6JeNeijgl-ERopNni-124" target="JzE6JeNeijgl-ERopNni-142">
          <mxGeometry relative="1" as="geometry">
            <Array as="points">
              <mxPoint x="111" y="130"/>
              <mxPoint x="86" y="130"/>
            </Array>
          </mxGeometry>
        </mxCell>
        <mxCell id="JzE6JeNeijgl-ERopNni-124" value="1. Triagem e Encaminhamento" style="rounded=1;whiteSpace=wrap;html=1;absoluteArcSize=1;arcSize=14;strokeWidth=2;fillColor=#ffffff;fontFamily=Arial;fontSize=11;" vertex="1" parent="JzE6JeNeijgl-ERopNni-48">
          <mxGeometry x="76.5" y="70" width="130" height="50" as="geometry"/>
        </mxCell>
        <mxCell id="JzE6JeNeijgl-ERopNni-190" style="edgeStyle=orthogonalEdgeStyle;rounded=0;orthogonalLoop=1;jettySize=auto;html=1;entryX=0.435;entryY=0.052;entryDx=0;entryDy=0;fontFamily=Arial;fontSize=22;fontColor=#660066;entryPerimeter=0;" edge="1" parent="JzE6JeNeijgl-ERopNni-48" source="JzE6JeNeijgl-ERopNni-136" target="JzE6JeNeijgl-ERopNni-168">
          <mxGeometry relative="1" as="geometry">
            <Array as="points">
              <mxPoint x="235" y="200"/>
              <mxPoint x="75" y="200"/>
            </Array>
          </mxGeometry>
        </mxCell>
        <mxCell id="JzE6JeNeijgl-ERopNni-136" value="ATOM" style="rounded=1;whiteSpace=wrap;html=1;absoluteArcSize=1;arcSize=14;strokeWidth=2;fillColor=#ffffff;fontFamily=Arial;fontSize=11;" vertex="1" parent="JzE6JeNeijgl-ERopNni-48">
          <mxGeometry x="175" y="133" width="130" height="50" as="geometry"/>
        </mxCell>
        <mxCell id="JzE6JeNeijgl-ERopNni-195" style="edgeStyle=orthogonalEdgeStyle;rounded=0;orthogonalLoop=1;jettySize=auto;html=1;entryX=0.5;entryY=0;entryDx=0;entryDy=0;entryPerimeter=0;fontFamily=Arial;fontSize=10;fontColor=#660066;" edge="1" parent="JzE6JeNeijgl-ERopNni-48" source="JzE6JeNeijgl-ERopNni-166" target="JzE6JeNeijgl-ERopNni-194">
          <mxGeometry relative="1" as="geometry"/>
        </mxCell>
        <mxCell id="JzE6JeNeijgl-ERopNni-166" value="2. Análise e Emissão virtual da AVT" style="rounded=1;whiteSpace=wrap;html=1;absoluteArcSize=1;arcSize=14;strokeWidth=2;fillColor=#ffffff;fontFamily=Arial;fontSize=11;" vertex="1" parent="JzE6JeNeijgl-ERopNni-48">
          <mxGeometry x="56" y="440" width="130" height="50" as="geometry"/>
        </mxCell>
        <mxCell id="JzE6JeNeijgl-ERopNni-189" style="edgeStyle=orthogonalEdgeStyle;rounded=0;orthogonalLoop=1;jettySize=auto;html=1;entryX=0;entryY=0.5;entryDx=0;entryDy=0;fontFamily=Arial;fontSize=22;fontColor=#660066;" edge="1" parent="JzE6JeNeijgl-ERopNni-48" source="JzE6JeNeijgl-ERopNni-142" target="JzE6JeNeijgl-ERopNni-136">
          <mxGeometry relative="1" as="geometry"/>
        </mxCell>
        <mxCell id="JzE6JeNeijgl-ERopNni-142" value="&lt;div&gt;Encaminha&lt;/div&gt;&lt;div&gt;para&lt;/div&gt;" style="text;html=1;resizable=0;autosize=1;align=center;verticalAlign=middle;points=[];fillColor=none;strokeColor=none;rounded=0;fontFamily=Arial;fontSize=11;fontStyle=2" vertex="1" parent="JzE6JeNeijgl-ERopNni-48">
          <mxGeometry x="51" y="143" width="70" height="30" as="geometry"/>
        </mxCell>
        <mxCell id="JzE6JeNeijgl-ERopNni-175" style="edgeStyle=orthogonalEdgeStyle;rounded=0;orthogonalLoop=1;jettySize=auto;html=1;entryX=0;entryY=0.5;entryDx=0;entryDy=0;fontFamily=Arial;fontSize=11;" edge="1" parent="JzE6JeNeijgl-ERopNni-48" source="JzE6JeNeijgl-ERopNni-168" target="JzE6JeNeijgl-ERopNni-174">
          <mxGeometry relative="1" as="geometry">
            <Array as="points">
              <mxPoint x="120" y="255"/>
              <mxPoint x="120" y="255"/>
            </Array>
          </mxGeometry>
        </mxCell>
        <mxCell id="JzE6JeNeijgl-ERopNni-168" value="&lt;div&gt;Encaminha&lt;/div&gt;&lt;div&gt;para:&lt;/div&gt;" style="text;html=1;resizable=0;points=[];autosize=1;align=center;verticalAlign=middle;spacingTop=-4;fontSize=11;fontFamily=Arial;" vertex="1" parent="JzE6JeNeijgl-ERopNni-48">
          <mxGeometry x="45" y="240" width="70" height="30" as="geometry"/>
        </mxCell>
        <mxCell id="JzE6JeNeijgl-ERopNni-174" value="&lt;div&gt;SUSR/SSRA (Água Regional)&lt;br&gt;&lt;/div&gt;&lt;div&gt;SUSM/SSMA (Água Metropolitana)&lt;br&gt;&lt;/div&gt;&lt;div&gt;SUES/SSES (Esgoto)&lt;br&gt;&lt;/div&gt;" style="rounded=1;whiteSpace=wrap;html=1;absoluteArcSize=1;arcSize=14;strokeWidth=1;fillColor=#ffffff;fontFamily=Arial;fontSize=11;align=center;fontStyle=3" vertex="1" parent="JzE6JeNeijgl-ERopNni-48">
          <mxGeometry x="154" y="220" width="160" height="70" as="geometry"/>
        </mxCell>
        <mxCell id="JzE6JeNeijgl-ERopNni-177" value="&lt;div&gt;Encaminha&lt;/div&gt;&lt;div&gt;para:&lt;/div&gt;" style="text;html=1;resizable=0;points=[];autosize=1;align=center;verticalAlign=middle;spacingTop=-4;fontSize=11;fontFamily=Arial;" vertex="1" parent="JzE6JeNeijgl-ERopNni-48">
          <mxGeometry x="206" y="310" width="70" height="30" as="geometry"/>
        </mxCell>
        <mxCell id="JzE6JeNeijgl-ERopNni-178" style="edgeStyle=orthogonalEdgeStyle;rounded=0;orthogonalLoop=1;jettySize=auto;html=1;fontFamily=Arial;fontSize=11;" edge="1" parent="JzE6JeNeijgl-ERopNni-48" source="JzE6JeNeijgl-ERopNni-174" target="JzE6JeNeijgl-ERopNni-177">
          <mxGeometry relative="1" as="geometry">
            <mxPoint x="241" y="414.0000000000001" as="targetPoint"/>
            <mxPoint x="241" y="344" as="sourcePoint"/>
            <Array as="points">
              <mxPoint x="241" y="310"/>
              <mxPoint x="241" y="310"/>
            </Array>
          </mxGeometry>
        </mxCell>
        <mxCell id="JzE6JeNeijgl-ERopNni-193" style="edgeStyle=orthogonalEdgeStyle;rounded=0;orthogonalLoop=1;jettySize=auto;html=1;fontFamily=Arial;fontSize=22;fontColor=#660066;exitX=0;exitY=0.5;exitDx=0;exitDy=0;" edge="1" parent="JzE6JeNeijgl-ERopNni-48" source="JzE6JeNeijgl-ERopNni-181" target="JzE6JeNeijgl-ERopNni-166">
          <mxGeometry relative="1" as="geometry"/>
        </mxCell>
        <mxCell id="JzE6JeNeijgl-ERopNni-181" value="Gerências Operacionais" style="rounded=1;whiteSpace=wrap;html=1;absoluteArcSize=1;arcSize=14;strokeWidth=1;fillColor=#ffffff;fontFamily=Arial;fontSize=11;align=center;fontStyle=3" vertex="1" parent="JzE6JeNeijgl-ERopNni-48">
          <mxGeometry x="180" y="372" width="120" height="46" as="geometry"/>
        </mxCell>
        <mxCell id="JzE6JeNeijgl-ERopNni-176" style="edgeStyle=orthogonalEdgeStyle;rounded=0;orthogonalLoop=1;jettySize=auto;html=1;fontFamily=Arial;fontSize=11;entryX=0.5;entryY=0;entryDx=0;entryDy=0;" edge="1" parent="JzE6JeNeijgl-ERopNni-48" source="JzE6JeNeijgl-ERopNni-177" target="JzE6JeNeijgl-ERopNni-181">
          <mxGeometry relative="1" as="geometry">
            <mxPoint x="241" y="380" as="targetPoint"/>
            <Array as="points">
              <mxPoint x="240" y="360"/>
              <mxPoint x="240" y="360"/>
            </Array>
          </mxGeometry>
        </mxCell>
        <mxCell id="JzE6JeNeijgl-ERopNni-186" value="4.0.00.00/DOM" style="text;html=1;resizable=0;autosize=1;align=center;verticalAlign=middle;points=[];fillColor=none;strokeColor=none;rounded=0;fontFamily=Arial;fontSize=22;fontColor=#660066;fontStyle=1;" vertex="1" parent="JzE6JeNeijgl-ERopNni-48">
          <mxGeometry x="181" y="670" width="160" height="30" as="geometry"/>
        </mxCell>
        <mxCell id="JzE6JeNeijgl-ERopNni-214" style="edgeStyle=orthogonalEdgeStyle;rounded=0;orthogonalLoop=1;jettySize=auto;html=1;entryX=0.512;entryY=1.159;entryDx=0;entryDy=0;entryPerimeter=0;fontFamily=Arial;fontSize=10;fontColor=#000000;" edge="1" parent="JzE6JeNeijgl-ERopNni-48" source="JzE6JeNeijgl-ERopNni-194" target="JzE6JeNeijgl-ERopNni-213">
          <mxGeometry relative="1" as="geometry">
            <Array as="points">
              <mxPoint x="325" y="531"/>
              <mxPoint x="325" y="418"/>
            </Array>
          </mxGeometry>
        </mxCell>
        <mxCell id="JzE6JeNeijgl-ERopNni-194" value="&lt;div&gt;Informações&lt;/div&gt;&lt;div&gt;são&lt;/div&gt;&lt;div&gt;suficientes?&lt;/div&gt;" style="strokeWidth=2;html=1;shape=mxgraph.flowchart.decision;whiteSpace=wrap;rounded=1;fillColor=#ffffff;fontFamily=Arial;fontSize=10;fontColor=#000000;align=center;" vertex="1" parent="JzE6JeNeijgl-ERopNni-48">
          <mxGeometry x="220" y="490" width="94" height="82" as="geometry"/>
        </mxCell>
        <mxCell id="JzE6JeNeijgl-ERopNni-221" style="edgeStyle=orthogonalEdgeStyle;rounded=0;orthogonalLoop=1;jettySize=auto;html=1;entryX=0.5;entryY=0;entryDx=0;entryDy=0;entryPerimeter=0;fontFamily=Arial;fontSize=10;fontColor=#000000;" edge="1" parent="JzE6JeNeijgl-ERopNni-48" source="JzE6JeNeijgl-ERopNni-196" target="JzE6JeNeijgl-ERopNni-198">
          <mxGeometry relative="1" as="geometry"/>
        </mxCell>
        <mxCell id="JzE6JeNeijgl-ERopNni-196" value="Conclusão da análise e emissão da AVT no PUBLIX" style="rounded=1;whiteSpace=wrap;html=1;absoluteArcSize=1;arcSize=14;strokeWidth=2;fillColor=#ffffff;fontFamily=Arial;fontSize=10;fontColor=#000000;align=center;" vertex="1" parent="JzE6JeNeijgl-ERopNni-48">
          <mxGeometry x="41" y="504" width="100" height="54" as="geometry"/>
        </mxCell>
        <mxCell id="JzE6JeNeijgl-ERopNni-222" style="edgeStyle=orthogonalEdgeStyle;rounded=0;orthogonalLoop=1;jettySize=auto;html=1;fontFamily=Arial;fontSize=10;fontColor=#000000;" edge="1" parent="JzE6JeNeijgl-ERopNni-48" source="JzE6JeNeijgl-ERopNni-198" target="JzE6JeNeijgl-ERopNni-220">
          <mxGeometry relative="1" as="geometry">
            <Array as="points">
              <mxPoint x="121" y="650"/>
              <mxPoint x="121" y="650"/>
            </Array>
          </mxGeometry>
        </mxCell>
        <mxCell id="JzE6JeNeijgl-ERopNni-198" value="&lt;div&gt;&lt;br&gt;&lt;/div&gt;&lt;div&gt;AVT&lt;/div&gt;&lt;div&gt;SISTEMA PÚBLIX&lt;/div&gt;" style="strokeWidth=1;html=1;shape=mxgraph.flowchart.database;whiteSpace=wrap;rounded=1;fillColor=#ffffff;fontFamily=Arial;fontSize=10;fontColor=#000000;align=center;verticalAlign=middle;" vertex="1" parent="JzE6JeNeijgl-ERopNni-48">
          <mxGeometry x="38.5" y="581.5" width="105" height="60" as="geometry"/>
        </mxCell>
        <mxCell id="JzE6JeNeijgl-ERopNni-203" value="&lt;div&gt;Contacta cliente e solicita complementos&lt;br&gt;&lt;/div&gt;" style="text;html=1;resizable=0;autosize=1;align=center;verticalAlign=middle;points=[];fillColor=none;strokeColor=none;rounded=0;fontFamily=Arial;fontSize=10;fontColor=#000000;fontStyle=2" vertex="1" parent="JzE6JeNeijgl-ERopNni-48">
          <mxGeometry x="100" y="40" width="200" height="20" as="geometry"/>
        </mxCell>
        <mxCell id="JzE6JeNeijgl-ERopNni-212" style="edgeStyle=orthogonalEdgeStyle;rounded=0;orthogonalLoop=1;jettySize=auto;html=1;entryX=1;entryY=0.5;entryDx=0;entryDy=0;fontFamily=Arial;fontSize=10;fontColor=#000000;" edge="1" parent="JzE6JeNeijgl-ERopNni-48" source="JzE6JeNeijgl-ERopNni-209" target="JzE6JeNeijgl-ERopNni-196">
          <mxGeometry relative="1" as="geometry"/>
        </mxCell>
        <mxCell id="JzE6JeNeijgl-ERopNni-209" value="Sim" style="text;html=1;resizable=0;points=[];autosize=1;align=center;verticalAlign=middle;spacingTop=-4;fontSize=11;fontFamily=Arial;fontStyle=2" vertex="1" parent="JzE6JeNeijgl-ERopNni-48">
          <mxGeometry x="171" y="526" width="20" height="10" as="geometry"/>
        </mxCell>
        <mxCell id="JzE6JeNeijgl-ERopNni-211" style="edgeStyle=orthogonalEdgeStyle;rounded=0;orthogonalLoop=1;jettySize=auto;html=1;fontFamily=Arial;fontSize=10;fontColor=#000000;" edge="1" parent="JzE6JeNeijgl-ERopNni-48" source="JzE6JeNeijgl-ERopNni-194" target="JzE6JeNeijgl-ERopNni-209">
          <mxGeometry relative="1" as="geometry">
            <mxPoint x="958" y="611.0000000000001" as="sourcePoint"/>
            <mxPoint x="900.5" y="611.0000000000001" as="targetPoint"/>
            <Array as="points">
              <mxPoint x="185" y="531"/>
            </Array>
          </mxGeometry>
        </mxCell>
        <mxCell id="JzE6JeNeijgl-ERopNni-215" style="edgeStyle=orthogonalEdgeStyle;rounded=0;orthogonalLoop=1;jettySize=auto;html=1;entryX=0.998;entryY=0.743;entryDx=0;entryDy=0;entryPerimeter=0;fontFamily=Arial;fontSize=10;fontColor=#000000;" edge="1" parent="JzE6JeNeijgl-ERopNni-48" source="JzE6JeNeijgl-ERopNni-213" target="JzE6JeNeijgl-ERopNni-203">
          <mxGeometry relative="1" as="geometry">
            <Array as="points">
              <mxPoint x="325" y="55"/>
            </Array>
          </mxGeometry>
        </mxCell>
        <mxCell id="JzE6JeNeijgl-ERopNni-213" value="Não" style="text;html=1;resizable=0;points=[];autosize=1;align=center;verticalAlign=middle;spacingTop=-4;fontSize=11;fontFamily=Arial;fontStyle=2" vertex="1" parent="JzE6JeNeijgl-ERopNni-48">
          <mxGeometry x="305" y="360" width="40" height="10" as="geometry"/>
        </mxCell>
        <mxCell id="JzE6JeNeijgl-ERopNni-220" value="&lt;div&gt;Informe sobre a conclusão da&lt;/div&gt;&lt;div&gt;AVT e orienta procurar a GCLE&lt;/div&gt;" style="text;html=1;resizable=0;autosize=1;align=center;verticalAlign=middle;points=[];fillColor=none;strokeColor=none;rounded=0;fontFamily=Arial;fontSize=10;fontColor=#000000;fontStyle=2" vertex="1" parent="JzE6JeNeijgl-ERopNni-48">
          <mxGeometry x="26" y="670" width="160" height="30" as="geometry"/>
        </mxCell>
        <mxCell id="JzE6JeNeijgl-ERopNni-63" value="" style="edgeStyle=orthogonalEdgeStyle;rounded=0;orthogonalLoop=1;jettySize=auto;html=1;fontFamily=Arial;entryX=0;entryY=0.5;entryDx=0;entryDy=0;entryPerimeter=0;" edge="1" parent="JzE6JeNeijgl-ERopNni-44" source="JzE6JeNeijgl-ERopNni-53" target="JzE6JeNeijgl-ERopNni-66">
          <mxGeometry relative="1" as="geometry">
            <mxPoint x="385" y="456" as="targetPoint"/>
            <Array as="points">
              <mxPoint x="90" y="664"/>
              <mxPoint x="360" y="664"/>
              <mxPoint x="360" y="299"/>
            </Array>
          </mxGeometry>
        </mxCell>
        <mxCell id="JzE6JeNeijgl-ERopNni-96" style="edgeStyle=orthogonalEdgeStyle;rounded=0;orthogonalLoop=1;jettySize=auto;html=1;entryX=0.976;entryY=0.587;entryDx=0;entryDy=0;fontFamily=Arial;fontSize=11;entryPerimeter=0;exitX=0;exitY=0.5;exitDx=0;exitDy=0;" edge="1" parent="JzE6JeNeijgl-ERopNni-44" source="JzE6JeNeijgl-ERopNni-108" target="JzE6JeNeijgl-ERopNni-94">
          <mxGeometry relative="1" as="geometry">
            <mxPoint x="360" y="98" as="sourcePoint"/>
            <Array as="points">
              <mxPoint x="231" y="101"/>
              <mxPoint x="231" y="88"/>
            </Array>
          </mxGeometry>
        </mxCell>
        <mxCell id="JzE6JeNeijgl-ERopNni-150" value="D - ENCERRAMENTO" style="swimlane;html=1;startSize=20;fontFamily=Arial;" vertex="1" parent="JzE6JeNeijgl-ERopNni-44">
          <mxGeometry x="1030" y="20" width="350" height="720" as="geometry"/>
        </mxCell>
        <mxCell id="JzE6JeNeijgl-ERopNni-187" value="" style="whiteSpace=wrap;html=1;fontFamily=Arial;fontSize=11;fillColor=#fff2cc;strokeColor=#d6b656;dashed=1;strokeWidth=1;rounded=1;arcSize=3;" vertex="1" parent="JzE6JeNeijgl-ERopNni-150">
          <mxGeometry x="11" y="30" width="329" height="680" as="geometry"/>
        </mxCell>
        <mxCell id="JzE6JeNeijgl-ERopNni-188" value="5.0.06.00/GCLE" style="text;html=1;resizable=0;autosize=1;align=center;verticalAlign=middle;points=[];fillColor=none;strokeColor=none;rounded=0;fontFamily=Arial;fontSize=22;fontColor=#994C00;fontStyle=1" vertex="1" parent="JzE6JeNeijgl-ERopNni-150">
          <mxGeometry x="88" y="679" width="170" height="30" as="geometry"/>
        </mxCell>
        <mxCell id="JzE6JeNeijgl-ERopNni-216" value="Emissão da Guida de Pagamento" style="rounded=1;whiteSpace=wrap;html=1;absoluteArcSize=1;arcSize=14;strokeWidth=2;fillColor=#ffffff;fontFamily=Arial;fontSize=11;" vertex="1" parent="JzE6JeNeijgl-ERopNni-150">
          <mxGeometry x="173" y="80" width="127" height="50" as="geometry"/>
        </mxCell>
        <mxCell id="JzE6JeNeijgl-ERopNni-217" value="Pagamento efetuado?" style="strokeWidth=2;html=1;shape=mxgraph.flowchart.decision;whiteSpace=wrap;rounded=1;fillColor=#ffffff;fontFamily=Arial;fontSize=10;fontColor=#000000;align=center;" vertex="1" parent="JzE6JeNeijgl-ERopNni-150">
          <mxGeometry x="189.5" y="180" width="94" height="82" as="geometry"/>
        </mxCell>
        <mxCell id="JzE6JeNeijgl-ERopNni-225" style="edgeStyle=orthogonalEdgeStyle;rounded=0;orthogonalLoop=1;jettySize=auto;html=1;fontFamily=Arial;fontSize=10;fontColor=#000000;" edge="1" parent="JzE6JeNeijgl-ERopNni-150" source="JzE6JeNeijgl-ERopNni-218" target="JzE6JeNeijgl-ERopNni-224">
          <mxGeometry relative="1" as="geometry"/>
        </mxCell>
        <mxCell id="JzE6JeNeijgl-ERopNni-218" value="Retirada da AVT" style="rounded=1;whiteSpace=wrap;html=1;absoluteArcSize=1;arcSize=14;strokeWidth=2;fillColor=#ffffff;fontFamily=Arial;fontSize=11;" vertex="1" parent="JzE6JeNeijgl-ERopNni-150">
          <mxGeometry x="170" y="310" width="127" height="50" as="geometry"/>
        </mxCell>
        <mxCell id="JzE6JeNeijgl-ERopNni-224" value="Encerramento" style="strokeWidth=2;html=1;shape=mxgraph.flowchart.terminator;whiteSpace=wrap;rounded=1;labelBackgroundColor=none;fontFamily=Arial;fontSize=10;align=center;" vertex="1" parent="JzE6JeNeijgl-ERopNni-150">
          <mxGeometry x="183.5" y="430" width="100" height="60" as="geometry"/>
        </mxCell>
        <mxCell id="JzE6JeNeijgl-ERopNni-165" style="edgeStyle=orthogonalEdgeStyle;rounded=0;orthogonalLoop=1;jettySize=auto;html=1;entryX=0;entryY=0.5;entryDx=0;entryDy=0;fontFamily=Arial;fontSize=11;" edge="1" parent="JzE6JeNeijgl-ERopNni-44" source="JzE6JeNeijgl-ERopNni-130" target="JzE6JeNeijgl-ERopNni-124">
          <mxGeometry relative="1" as="geometry">
            <Array as="points">
              <mxPoint x="711" y="679"/>
              <mxPoint x="711" y="115"/>
            </Array>
          </mxGeometry>
        </mxCell>
        <mxCell id="JzE6JeNeijgl-ERopNni-206" style="edgeStyle=orthogonalEdgeStyle;rounded=0;orthogonalLoop=1;jettySize=auto;html=1;entryX=0.75;entryY=0.25;entryDx=0;entryDy=0;entryPerimeter=0;fontFamily=Arial;fontSize=10;fontColor=#000000;" edge="1" parent="JzE6JeNeijgl-ERopNni-44" source="JzE6JeNeijgl-ERopNni-203" target="JzE6JeNeijgl-ERopNni-94">
          <mxGeometry relative="1" as="geometry">
            <Array as="points">
              <mxPoint x="610" y="68"/>
              <mxPoint x="610" y="68"/>
            </Array>
          </mxGeometry>
        </mxCell>
        <mxCell id="JzE6JeNeijgl-ERopNni-223" style="edgeStyle=orthogonalEdgeStyle;rounded=0;orthogonalLoop=1;jettySize=auto;html=1;entryX=0.1;entryY=0.5;entryDx=0;entryDy=0;entryPerimeter=0;fontFamily=Arial;fontSize=10;fontColor=#000000;" edge="1" parent="JzE6JeNeijgl-ERopNni-44" source="JzE6JeNeijgl-ERopNni-220" target="JzE6JeNeijgl-ERopNni-94">
          <mxGeometry relative="1" as="geometry">
            <Array as="points">
              <mxPoint x="20" y="720"/>
              <mxPoint x="20" y="83"/>
            </Array>
          </mxGeometry>
        </mxCell>
        <mxCell id="JzE6JeNeijgl-ERopNni-156" value="&lt;div&gt;Protocolo SPD&lt;/div&gt;&lt;div&gt;(Protocolo principal)&lt;br&gt;&lt;/div&gt;" style="strokeWidth=2;html=1;shape=mxgraph.flowchart.document2;whiteSpace=wrap;size=0.25;fontFamily=Arial;verticalAlign=top;" vertex="1" parent="1">
          <mxGeometry x="265" y="558" width="130" height="60" as="geometry"/>
        </mxCell>
      </root>
    </mxGraphModel>
  </diagram>
</mxfile>
